<svg viewBox="0 0 327 320" fill="none" xmlns="http://www.w3.org/2000/svg">
<g clip-path="url(#clip0_235_2365)">
<path fill-rule="evenodd" clip-rule="evenodd" d="M60.3906 56.1919L55.9975 48.5829C54.4671 45.9321 51.6293 45.3528 48.9725 46.8867L41.8032 51.0259C39.1463 52.5599 38.2241 55.2983 39.7595 57.9579L44.1526 65.5669C45.6881 68.2264 48.5213 68.7979 51.1782 67.2639L58.3475 63.1247C61.0043 61.5908 61.9261 58.8514 60.3906 56.1919Z" stroke="#6346FA" stroke-width="1.5" stroke-linecap="round" stroke-linejoin="round"/>
<path fill-rule="evenodd" clip-rule="evenodd" d="M52.4787 55.6825C52.1032 55.0321 47.9014 54.6836 47.7771 55.2543C47.6527 55.8249 49.8893 59.7744 50.4988 59.9684C51.1091 60.1638 52.8542 56.333 52.4787 55.6825Z" stroke="#6346FA" stroke-width="1.5" stroke-linecap="round" stroke-linejoin="round"/>
</g>
<g clip-path="url(#clip1_235_2365)">
<path fill-rule="evenodd" clip-rule="evenodd" d="M220.034 101.741L223.419 93.6335C224.599 90.809 223.338 88.2014 220.507 87.0192L212.868 83.8293C210.037 82.6472 207.301 83.5748 206.117 86.4086L202.732 94.5162C201.548 97.3501 202.812 99.9493 205.643 101.131L213.282 104.321C216.113 105.503 218.85 104.575 220.034 101.741Z" stroke="#6346FA" stroke-width="1.5" stroke-linecap="round" stroke-linejoin="round"/>
<path fill-rule="evenodd" clip-rule="evenodd" d="M215.64 95.1415C215.93 94.4485 213.659 90.8964 213.129 91.1436C212.6 91.3908 210.816 95.5644 211.032 96.1667C211.247 96.7704 215.351 95.8346 215.64 95.1415Z" stroke="#6346FA" stroke-width="1.5" stroke-linecap="round" stroke-linejoin="round"/>
</g>
<path d="M166.166 29.0305L166.597 14.8435L182.243 16.4959L179.711 30.4597C179.551 31.342 178.738 31.9515 177.846 31.8573L167.698 30.7856C166.807 30.6915 166.139 29.9262 166.166 29.0305Z" stroke="#6346FA" stroke-width="1.5"/>
<path opacity="0.4" d="M176.048 23.7546C175.905 25.1072 174.693 26.0878 173.34 25.945C171.988 25.8021 171.007 24.5899 171.15 23.2373C171.293 21.8848 172.505 20.9041 173.858 21.047C175.21 21.1898 176.191 22.4021 176.048 23.7546Z" fill="#6346FA"/>
<path d="M181.613 12.0959C182.892 12.2309 183.819 13.3771 183.684 14.6558C183.549 15.9346 182.403 16.8617 181.124 16.7267L174.389 16.0154L167.654 15.3041C166.376 15.1691 165.449 14.023 165.584 12.7442C165.719 11.4655 166.865 10.5383 168.143 10.6734C168.91 10.7543 169.526 10.2001 169.664 9.53593C170.22 6.84784 172.737 4.96773 175.525 5.26216C178.313 5.55658 180.381 7.92102 180.364 10.666C180.36 11.3443 180.846 12.0149 181.613 12.0959Z" stroke="#6346FA" stroke-width="1.5"/>
<g opacity="0.4">
<path d="M189.673 33.0976L186.497 35.9265C186.08 36.2972 185.422 35.9968 185.429 35.4392L185.546 26.5223C185.553 26.0151 186.119 25.716 186.541 25.9965L193.938 30.8954C194.401 31.2023 194.282 31.9122 193.744 32.0505L189.673 33.0976" stroke="#6346FA" stroke-width="1.5" stroke-linecap="round" stroke-linejoin="round"/>
</g>
<path d="M282.541 41.9507L282.054 44.3212" stroke="#6346FA" stroke-width="1.5" stroke-linecap="round" stroke-linejoin="round"/>
<path d="M279.822 55.1841L279.415 57.1667" stroke="#6346FA" stroke-width="1.5" stroke-linecap="round" stroke-linejoin="round"/>
<path d="M280.514 51.8188L281.484 47.0965" stroke="#6346FA" stroke-width="1.5" stroke-linecap="round" stroke-linejoin="round"/>
<path fill-rule="evenodd" clip-rule="evenodd" d="M284.124 58.3547C285.909 58.7214 287.648 57.5908 288.01 55.8282L288.532 53.2887C287.351 53.0461 286.593 51.9114 286.833 50.745C287.072 49.5787 288.217 48.8338 289.398 49.0765L289.918 46.5358C290.281 44.7732 289.127 43.0484 287.344 42.6819L274.216 39.9846C272.432 39.6181 270.692 40.7485 270.33 42.5111L269.79 45.1341C270.971 45.3767 271.746 46.4297 271.506 47.5961C271.266 48.7624 270.122 49.5063 268.941 49.2636L268.42 51.8031C268.057 53.5657 269.21 55.2903 270.994 55.657L284.124 58.3547Z" stroke="#6346FA" stroke-width="1.5" stroke-linecap="round" stroke-linejoin="round"/>
<path d="M309.544 154.432C309.126 153.968 308.616 153.69 308.153 153.551C308.616 151.508 309.358 147.006 307.225 145.104C305.881 143.897 304.351 143.386 302.728 143.618C301.059 143.85 299.482 144.825 298.231 145.939C298.88 143.665 299.297 140.973 298.555 139.07C298.138 138.049 297.396 137.306 296.376 136.935C289.607 134.475 283.394 141.53 281.493 143.99C280.983 143.572 280.288 143.154 279.221 142.969C276.161 142.365 272.174 143.897 267.398 147.563C262.901 150.998 258.774 158.099 253.953 166.361C246.302 179.542 236.798 195.972 221.822 203.073C208.515 209.339 196.971 194.904 196.878 194.719L195.58 195.74C195.719 195.879 208.098 211.427 222.564 204.558C238.003 197.271 247.647 180.563 255.436 167.15C260.119 159.027 264.199 152.065 268.418 148.863C273.843 144.732 277.088 144.268 278.85 144.593C279.731 144.732 280.241 145.104 280.566 145.382L261.881 174.715L263.272 175.597L282.281 145.753C282.42 145.521 289.097 136.053 295.82 138.466C296.376 138.652 296.793 139.07 297.025 139.673C297.999 141.994 296.376 146.728 295.402 148.956L276.857 178.846L278.294 179.727L296.561 150.255L296.608 150.302C296.654 150.255 299.622 145.707 302.96 145.243C304.119 145.104 305.139 145.428 306.113 146.357C307.503 147.61 306.947 151.648 306.298 153.968L287.752 183.208L289.143 184.09L307.503 155.129C307.735 155.175 308.013 155.268 308.292 155.593C308.987 156.382 309.822 158.749 307.782 165.989C303.748 180.331 283.069 222.334 236.89 244.473C225.578 249.904 215.192 250.136 206.058 245.216C178.193 230.178 169.987 171.791 169.894 171.188L168.225 171.42C168.225 171.559 170.311 186.504 175.828 203.12C183.293 225.537 193.215 240.203 205.224 246.701C209.814 249.207 214.728 250.461 219.875 250.461C225.485 250.461 231.373 248.975 237.54 246.051C284.321 223.68 305.232 181.073 309.358 166.5C311.213 160.281 311.213 156.243 309.544 154.432Z" fill="#2E2E30"/>
<path d="M130.901 121.247L138.598 121.387L134.75 100.64L133.127 100.919L136.558 119.669L130.948 119.577L130.901 121.247Z" fill="#2E2E30"/>
<path d="M126.126 127.281C126.45 127.374 126.775 127.42 127.099 127.467L127.378 125.796C124.225 125.285 122.185 124.125 121.304 122.361C120.052 119.855 121.628 116.792 121.628 116.745L120.145 115.956C120.052 116.096 118.151 119.809 119.774 123.104C120.794 125.193 122.927 126.585 126.126 127.281Z" fill="#2E2E30"/>
<path d="M107.951 126.724C109.295 127.56 111.011 126.492 110.826 124.914C110.594 122.918 110.547 119.716 111.196 114.471C112.773 101.568 141.241 119.994 156.077 101.708C170.914 83.421 140.313 63.5563 134.889 72.0035C129.464 80.4506 138.366 82.9569 132.431 84.999C126.682 86.9948 92.7434 84.8134 95.8498 113.032C96.0353 114.703 96.7771 116.281 97.8898 117.534C100.162 120.087 104.381 124.496 107.951 126.724Z" fill="#2E2E30"/>
<path d="M156.263 108.066C153.759 100.222 148.381 93.8174 141.055 90.0116C133.73 86.2057 125.384 85.5095 117.548 88.0158C109.713 90.5221 103.314 95.906 99.5126 103.239C97.658 106.813 96.5453 110.665 96.1744 114.564C92.4188 115.956 90.3788 120.087 91.6306 123.893C92.6043 126.956 95.3398 128.952 98.3998 129.138C102.248 138.559 110.408 145.196 119.82 147.424V159.306H121.489V147.795C123.251 148.12 125.106 148.306 126.914 148.306C128.722 148.306 130.577 148.12 132.431 147.795V159.306H134.1V147.424C134.796 147.239 135.538 147.053 136.233 146.821C144.069 144.315 150.467 138.931 154.269 131.597C158.025 124.264 158.766 115.91 156.263 108.066ZM152.739 130.808C149.169 137.724 143.095 142.829 135.677 145.196C121.304 149.745 105.957 142.551 100.115 128.952L99.6517 127.42C96.6844 128.116 94.1343 126.306 93.207 123.382C92.2334 120.319 93.9489 116.977 97.0089 116.003C97.5189 115.817 98.0753 115.771 98.5853 115.724C98.4462 115.167 98.4926 114.61 98.678 114.053C98.3999 114.053 98.168 114.1 97.8898 114.1C98.3071 110.619 99.3271 107.184 100.996 103.935C104.566 97.0199 110.64 91.9145 118.058 89.5475C120.979 88.6192 123.947 88.1551 126.914 88.1551C131.504 88.1551 136.094 89.269 140.313 91.4504C147.222 95.0242 152.322 101.104 154.686 108.53C157.004 116.003 156.355 123.893 152.739 130.808Z" fill="#2E2E30"/>
<path d="M100.533 119.066C99.1881 117.952 97.2871 117.72 94.9689 118.37L95.4325 119.994C97.2408 119.484 98.5853 119.623 99.5126 120.366C101.089 121.665 100.996 124.496 100.996 124.543L102.665 124.636C102.619 124.45 102.804 120.923 100.533 119.066Z" fill="#2E2E30"/>
<path d="M195.394 242.292L180.048 238.393L180.094 257.283V258.722H131.411L132.941 269.815C135.584 270 138.134 270.186 140.591 270.372C150.189 271.021 158.535 271.578 163.449 273.574C164.933 274.178 166.185 274.781 167.251 275.384C167.715 275.616 171.702 277.519 171.424 279.933C171.424 280.072 171.377 280.165 171.331 280.258C171.285 280.443 171.192 280.629 171.099 280.768H168.781C169.198 280.443 169.477 280.072 169.523 279.701C169.616 279.097 169.059 277.38 162.846 274.874C158.164 272.971 149.957 272.414 140.499 271.764C125.987 270.789 107.858 269.583 92.187 262.992C91.9088 262.853 91.5843 262.76 91.3061 262.621C91.0279 262.481 90.7497 262.389 90.4715 262.249C90.1933 262.11 89.9615 262.017 89.6833 261.878C81.755 257.747 76.8404 250.971 75.3104 241.921L74.9394 233.798H74.6149L33.8142 231.571L33.026 231.524C38.3115 155.546 121.489 155.546 121.489 155.546C126.404 163.576 132.431 156.289 132.431 156.289C178.796 164.226 204.482 198.757 204.482 198.757L195.394 242.292Z" fill="#0068FF"/>
<path d="M178.657 300.401C178.147 302.396 176.06 304.114 172.212 305.46C170.728 306.063 169.013 306.666 166.973 307.223C167.807 307.687 168.596 308.384 168.596 309.405C168.596 310.147 168.225 311.168 166.092 312.468C165.35 312.886 164.423 313.396 163.217 313.907C161.548 314.603 159.369 315.392 156.541 316.227C147.407 318.919 129.418 320.962 108.739 317.945C104.474 317.295 99.7908 316.413 94.8298 315.114C80.9205 311.493 65.2493 304.717 52.9627 292.186C50.3663 289.54 47.3526 285.873 44.3853 281.371C44.1535 281 43.9216 280.675 43.6898 280.304C36.1788 268.376 29.5487 251.017 32.8869 231.57L33.6751 231.617L34.3706 231.663C29.7805 258.583 44.7098 281.696 54.0291 291.165C70.3957 307.827 92.9288 314.139 108.925 316.46C128.073 319.244 146.387 317.666 156.077 314.789C158.998 313.953 161.131 313.164 162.661 312.514C162.707 312.514 162.754 312.468 162.8 312.468C166.787 310.751 167.019 309.73 167.019 309.451C167.019 308.848 165.582 308.152 164.516 307.873C164.469 307.873 164.423 307.827 164.376 307.827L163.31 307.595C147.732 310.101 128.722 306.898 128.537 306.852L128.815 305.413C129 305.46 148.334 308.755 163.774 306.063C167.205 305.46 169.801 304.763 171.702 304.067C176.014 302.211 176.988 300.586 177.08 299.565C177.127 299.194 177.034 298.823 176.895 298.451C176.617 297.848 176.199 297.337 175.782 296.92C175.55 296.688 175.272 296.409 174.948 296.224C174.901 296.224 174.901 296.177 174.901 296.177C174.02 295.481 173.047 294.924 172.397 294.645C166.138 298.034 151.719 298.312 126.497 295.713L126.682 294.274C143.559 296.038 165.814 297.662 172.583 292.835C174.113 291.443 174.716 290.143 174.438 288.983C174.438 288.89 174.391 288.844 174.345 288.751C173.696 287.173 171.656 285.966 170.218 285.317C169.801 285.131 169.337 284.945 168.874 284.76C168.781 284.713 168.781 284.713 168.781 284.713C167.436 284.203 166.092 283.831 165.257 283.646C154.223 286.152 126.45 283.878 125.245 283.785L125.384 282.346C125.662 282.346 151.673 284.481 163.403 282.532L165.072 282.207C165.721 282.068 166.324 281.882 166.834 281.743C167.529 281.464 168.178 281.139 168.688 280.814C169.106 280.49 169.384 280.118 169.43 279.747C169.523 279.144 168.967 277.426 162.754 274.92C158.071 273.017 149.864 272.46 140.406 271.81C125.894 270.836 107.765 269.629 92.0943 263.038C91.8161 262.899 91.4915 262.806 91.2134 262.667C90.9352 262.528 90.657 262.435 90.3788 262.296C90.1006 262.157 89.8688 262.064 89.5906 261.924C81.6623 257.84 76.5158 251.11 74.9394 242.013C74.754 240.853 74.6149 239.6 74.5222 238.347C74.4294 236.862 74.4294 235.376 74.5222 233.798C74.8003 227.765 76.3767 221.406 79.0659 216.069L80.4104 216.626C77.4431 222.845 75.5885 230.596 75.9595 237.279C76.6549 248.604 82.7287 257.469 92.697 261.646C105.03 266.798 118.986 268.608 131.411 269.629C131.875 269.675 132.385 269.722 132.849 269.722C135.491 269.907 138.041 270.093 140.499 270.279C150.096 270.929 158.442 271.485 163.356 273.481C164.84 274.085 166.092 274.688 167.158 275.291C167.622 275.523 171.609 277.426 171.331 279.84C171.331 279.979 171.285 280.072 171.238 280.165C171.192 280.35 171.099 280.536 171.007 280.675C170.914 280.861 170.775 281.047 170.589 281.186C170.033 281.789 169.152 282.3 167.947 282.764C168.364 282.903 168.874 283.042 169.337 283.228C169.569 283.321 170.265 283.553 171.146 284.017C173.278 285.038 175.318 286.477 175.828 288.426C176.153 289.447 176.06 290.515 175.504 291.536C175.133 292.278 174.577 292.975 173.788 293.578C174.345 293.903 175.087 294.321 175.782 294.878C175.828 294.924 176.57 295.434 177.266 296.224C177.312 296.27 177.312 296.27 177.358 296.316C177.637 296.688 177.915 297.059 178.1 297.43V297.477C178.1 297.477 178.1 297.523 178.147 297.523C178.703 298.498 178.889 299.426 178.657 300.401Z" fill="#2E2E30"/>
<path d="M266.007 138.977L265.08 138.466C267.12 134.753 269.485 132.665 272.22 132.154C275.466 131.551 277.877 133.547 278.016 133.593L277.32 134.429C277.32 134.429 275.141 132.665 272.406 133.222C270.041 133.64 267.862 135.589 266.007 138.977Z" fill="#6346FA"/>
<path d="M263.596 134.057L262.715 133.454C265.636 129.416 268.928 127.095 272.545 126.631C277.32 126.028 280.798 128.813 280.937 128.952L280.241 129.787L280.566 129.37L280.241 129.787C280.195 129.741 276.949 127.142 272.637 127.699C269.392 128.116 266.332 130.251 263.596 134.057Z" fill="#6346FA"/>
<path d="M319.048 165.989L318.353 165.2L318.724 165.572L318.353 165.2C318.353 165.2 320.393 163.297 320.254 160.513C320.115 158.099 318.492 155.732 315.385 153.412L316.035 152.576C319.419 155.082 321.181 157.774 321.32 160.513C321.459 163.762 319.187 165.897 319.048 165.989Z" fill="#6346FA"/>
<path d="M323.267 169.563L322.526 168.774L322.896 169.145L322.526 168.774C322.572 168.728 325.586 165.85 325.632 161.534C325.632 158.192 323.963 154.897 320.578 151.648L321.32 150.859C324.937 154.293 326.745 157.914 326.698 161.534C326.652 166.407 323.406 169.47 323.267 169.563Z" fill="#6346FA"/>
<path fill-rule="evenodd" clip-rule="evenodd" d="M183.725 257.469C185.686 256.299 187 254.156 187 251.706C187 248.002 183.998 245 180.294 245C179.666 245 179.059 245.086 178.482 245.248C177.957 243.031 175.965 241.382 173.588 241.382C173.588 238.605 171.336 236.353 168.559 236.353C166.401 236.353 164.561 237.712 163.847 239.62C162.929 238.641 161.624 238.029 160.176 238.029L160.176 238.029C160.176 235.252 157.925 233 155.147 233C152.369 233 150.118 235.252 150.118 238.029C150.118 238.55 150.197 239.053 150.344 239.526C149.432 238.602 148.165 238.029 146.765 238.029C144.445 238.029 142.493 239.599 141.911 241.735C141.338 241.507 140.713 241.382 140.059 241.382C137.281 241.382 135.029 243.634 135.029 246.412C135.029 247.003 135.131 247.57 135.318 248.096C135.223 248.091 135.126 248.088 135.029 248.088C132.252 248.088 130 250.34 130 253.118C130 254.979 131.011 256.605 132.515 257.474V258.5H184.485L183.725 257.469Z" fill="#FFC107"/>
<path d="M186.665 259.456L185.148 273.203L184.359 280.257L184.22 281.325L182.18 299.055L180.711 312.084C180.597 313.096 179.742 313.86 178.724 313.86H162.8L163.31 312.422H178.227C178.736 312.422 179.164 312.04 179.221 311.534L182.644 281.279L182.783 280.211L185.113 259.789C185.181 259.196 184.717 258.676 184.12 258.676H132.466C131.859 258.676 131.392 259.211 131.475 259.812L132.849 269.768L132.941 270.279L131.55 270.464L131.458 269.629L130.094 259.504C129.932 258.304 130.865 257.237 132.076 257.237H184.677C185.868 257.237 186.795 258.272 186.665 259.456Z" fill="#2E2E30"/>
<path d="M307.567 278.418C311.374 284.224 311.757 290.98 308.644 295.287C305.92 299.015 301.505 299.644 301.025 299.732C297.15 300.261 294.401 298.494 291.998 296.916C289.81 295.489 287.977 294.311 285.588 294.817C281.469 295.706 278.635 300.846 278.287 305.335C277.747 312.136 283.008 316.408 283.233 316.62L282.431 317.653C281.778 317.142 276.411 312.636 276.97 305.263C277.359 300.324 280.583 294.606 285.242 293.617C288.171 293.011 290.431 294.488 292.62 295.916C294.952 297.444 297.343 298.96 300.798 298.51C301.218 298.432 305.202 297.821 307.585 294.598C310.406 290.725 309.957 284.613 306.48 279.252L307.567 278.418Z" fill="#6346FA"/>
<path d="M222.241 295.258L226.9 294.395L224.249 298.328L225.325 299.067L227.976 295.134L228.839 299.793L230.17 299.547L229.307 294.887L233.191 297.61L233.93 296.534L230.046 293.812L234.705 292.949L234.47 291.678L229.811 292.541L232.462 288.608L231.386 287.868L228.724 291.741L227.861 287.082L226.53 287.328L227.393 291.988L223.52 289.325L222.78 290.401L226.664 293.124L222.005 293.987L222.241 295.258Z" fill="#2E2E30"/>
<path d="M55.0785 144.804L54.3175 145.309C54.2658 145.25 49.9461 138.422 43.6029 132.989C38.7071 128.8 34.0674 126.526 29.6502 126.249C30.6337 127.74 31.3951 129.216 31.8451 130.753C33.0199 134.685 32.1037 138.193 29.1537 140.863C25.0109 144.622 20.0743 144.588 17.0861 143.433C14.4788 142.415 12.8045 140.43 12.5757 138.126C12.2544 134.756 14.9673 131.093 20.1935 127.799C22.6173 126.265 25.2423 125.442 27.9018 125.319C24.1119 120.481 17.8121 116.418 11.9601 115.511L12.1892 114.634C18.426 115.623 25.1725 120.08 29.1017 125.318C33.9194 125.456 39.0292 127.79 44.2943 132.284C50.6852 137.832 55.0566 144.719 55.0785 144.804ZM13.515 137.466C13.5291 137.662 13.5174 137.829 13.5316 138.025C13.7282 139.992 15.1999 141.684 17.4817 142.567C20.2259 143.622 24.7995 143.659 28.6451 140.158C31.298 137.747 32.1352 134.568 31.0778 130.951C30.6058 129.328 29.7412 127.734 28.6505 126.18C25.9136 126.214 23.2925 126.981 20.7537 128.563C16.0844 131.477 13.5771 134.596 13.515 137.466Z" fill="#2E2E30"/>
<defs>
<clipPath id="clip0_235_2365">
<rect width="25" height="25" fill="white" transform="translate(33 52.5) rotate(-30)"/>
</clipPath>
<clipPath id="clip1_235_2365">
<rect width="25" height="25" fill="white" transform="translate(206.357 77.724) rotate(22.6642)"/>
</clipPath>
</defs>
</svg>
