<svg width="145" height="48" viewBox="0 0 145 48" fill="none" xmlns="http://www.w3.org/2000/svg">
<path d="M27.4986 15.0002L33.4989 21L21.4984 32.9998L15.4981 26.9999L27.4986 15.0002ZM47.4465 13.9472L43.9994 10.5002L42.4993 12.0002C42.1074 12.4031 41.6393 12.7241 41.1222 12.9445C40.6051 13.165 40.0493 13.2805 39.4872 13.2843C38.9251 13.2881 38.3679 13.1802 37.8479 12.9668C37.3278 12.7534 36.8554 12.4387 36.458 12.0412C36.0607 11.6436 35.7463 11.1711 35.5331 10.651C35.3199 10.1309 35.2123 9.57361 35.2164 9.01155C35.2205 8.44948 35.3362 7.89384 35.557 7.37689C35.7777 6.85995 36.0989 6.39203 36.502 6.00031L38.0021 4.50034L34.555 1.0534C33.876 0.378691 32.9576 0 32.0003 0C31.0431 0 30.1247 0.378691 29.4457 1.0534L1.55346 28.9439C0.878715 29.6229 0.5 30.5412 0.5 31.4984C0.5 32.4556 0.878715 33.3739 1.55346 34.0528L5.00062 37.4998L6.49769 36.0028C6.88943 35.5997 7.35738 35.2785 7.87436 35.0578C8.39133 34.8371 8.94701 34.7213 9.50911 34.7172C10.0712 34.7131 10.6285 34.8208 11.1487 35.0339C11.6688 35.2471 12.1414 35.5614 12.5389 35.9588C12.9365 36.3561 13.2512 36.8285 13.4646 37.3485C13.678 37.8685 13.7859 38.4257 13.7821 38.9878C13.7783 39.5499 13.6628 40.1056 13.4424 40.6226C13.2219 41.1397 12.9009 41.6078 12.498 41.9997L10.9979 43.4997L14.445 46.9466C15.124 47.6213 16.0424 48 16.9997 48C17.9569 48 18.8753 47.6213 19.5543 46.9466L47.4465 19.0561C48.1213 18.3771 48.5 17.4588 48.5 16.5016C48.5 15.5444 48.1213 14.6261 47.4465 13.9472V13.9472ZM21.4984 38.9997L9.49782 26.9999L27.4986 9.00026L39.4992 21L21.4984 38.9997Z" fill="#6346FA"/>
<path d="M72.956 15.152V18.44H66.092V21.992H71.228V25.184H66.092V32H61.988V15.152H72.956ZM85.433 21.872V25.28H74.873V21.872H85.433ZM88.3389 23.552C88.3389 21.888 88.6989 20.408 89.4189 19.112C90.1389 17.8 91.1389 16.784 92.4189 16.064C93.7149 15.328 95.1789 14.96 96.8109 14.96C98.8109 14.96 100.523 15.488 101.947 16.544C103.371 17.6 104.323 19.04 104.803 20.864H100.291C99.9549 20.16 99.4749 19.624 98.8509 19.256C98.2429 18.888 97.5469 18.704 96.7629 18.704C95.4989 18.704 94.4749 19.144 93.6909 20.024C92.9069 20.904 92.5149 22.08 92.5149 23.552C92.5149 25.024 92.9069 26.2 93.6909 27.08C94.4749 27.96 95.4989 28.4 96.7629 28.4C97.5469 28.4 98.2429 28.216 98.8509 27.848C99.4749 27.48 99.9549 26.944 100.291 26.24H104.803C104.323 28.064 103.371 29.504 101.947 30.56C100.523 31.6 98.8109 32.12 96.8109 32.12C95.1789 32.12 93.7149 31.76 92.4189 31.04C91.1389 30.304 90.1389 29.288 89.4189 27.992C88.6989 26.696 88.3389 25.216 88.3389 23.552ZM109.38 17.216C108.66 17.216 108.068 17.008 107.604 16.592C107.156 16.16 106.932 15.632 106.932 15.008C106.932 14.368 107.156 13.84 107.604 13.424C108.068 12.992 108.66 12.776 109.38 12.776C110.084 12.776 110.66 12.992 111.108 13.424C111.572 13.84 111.804 14.368 111.804 15.008C111.804 15.632 111.572 16.16 111.108 16.592C110.66 17.008 110.084 17.216 109.38 17.216ZM111.42 18.608V32H107.316V18.608H111.42ZM122.554 18.464C124.122 18.464 125.37 18.976 126.298 20C127.242 21.008 127.714 22.4 127.714 24.176V32H123.634V24.728C123.634 23.832 123.402 23.136 122.938 22.64C122.474 22.144 121.85 21.896 121.066 21.896C120.282 21.896 119.658 22.144 119.194 22.64C118.73 23.136 118.498 23.832 118.498 24.728V32H114.394V18.608H118.498V20.384C118.914 19.792 119.474 19.328 120.178 18.992C120.882 18.64 121.674 18.464 122.554 18.464ZM143.19 25.088C143.19 25.472 143.166 25.872 143.118 26.288H133.83C133.894 27.12 134.158 27.76 134.622 28.208C135.102 28.64 135.686 28.856 136.374 28.856C137.398 28.856 138.11 28.424 138.51 27.56H142.878C142.654 28.44 142.246 29.232 141.654 29.936C141.078 30.64 140.35 31.192 139.47 31.592C138.59 31.992 137.606 32.192 136.518 32.192C135.206 32.192 134.038 31.912 133.014 31.352C131.99 30.792 131.19 29.992 130.614 28.952C130.038 27.912 129.75 26.696 129.75 25.304C129.75 23.912 130.03 22.696 130.59 21.656C131.166 20.616 131.966 19.816 132.99 19.256C134.014 18.696 135.19 18.416 136.518 18.416C137.814 18.416 138.966 18.688 139.974 19.232C140.982 19.776 141.766 20.552 142.326 21.56C142.902 22.568 143.19 23.744 143.19 25.088ZM138.99 24.008C138.99 23.304 138.75 22.744 138.27 22.328C137.79 21.912 137.19 21.704 136.47 21.704C135.782 21.704 135.198 21.904 134.718 22.304C134.254 22.704 133.966 23.272 133.854 24.008H138.99Z" fill="#2E2E30"/>
</svg>
