<svg width="24" height="24" viewBox="0 0 24 24" fill="none" xmlns="http://www.w3.org/2000/svg">
<path fill-rule="evenodd" clip-rule="evenodd" d="M21.4231 9.96772C21.7417 9.96772 22 9.6644 22 9.29031V5.67741C22 5.30327 21.7417 5 21.4231 5H2.57691C2.25832 5 2 5.30327 2 5.67741V9.29031C2 9.66445 2.25832 9.96772 2.57691 9.96772C3.53125 9.96772 4.3077 10.8794 4.3077 12C4.3077 13.1206 3.53129 14.0323 2.57691 14.0323C2.25832 14.0323 2 14.3356 2 14.7097V18.3226C2 18.6967 2.25832 19 2.57691 19H21.4231C21.7417 19 22 18.6967 22 18.3226V14.7097C22 14.3356 21.7417 14.0323 21.4231 14.0323C20.4688 14.0323 19.6923 13.1206 19.6923 12C19.6923 10.8794 20.4687 9.96772 21.4231 9.96772ZM20.5 15.2837V17.55H8.99434V15.57C8.99434 15.2055 8.6105 14.91 8.30438 14.91C7.99825 14.91 7.5546 15.2055 7.5546 15.57V17.55H3.5V15.2837C4.76358 14.977 5.71739 13.6436 5.71739 12.05C5.71739 10.4564 4.76358 9.12293 3.5 8.81633V6.55H7.55457V8.53001C7.55457 8.89453 7.99821 9.19 8.30434 9.19C8.61046 9.19 8.99431 8.89448 8.99431 8.53001V6.55H20.5V8.81633C19.2364 9.12297 18.2826 10.4564 18.2826 12.05C18.2826 13.6436 19.2364 14.9771 20.5 15.2837ZM7.57691 11.0967C7.57691 10.7226 7.87911 10.4193 8.25191 10.4193C8.62472 10.4193 8.92696 10.7226 8.92691 11.0967V12.9032C8.92691 13.2773 8.62467 13.5806 8.25191 13.5806C7.87915 13.5806 7.57691 13.2774 7.57691 12.9032V11.0967Z" fill="white"/>
</svg>
